/* XPM */
static char *result[] = {
/* columns rows colors chars-per-pixel */
"32 32 9 1 ",
"  c black",
". c #6D6D6D",
"X c #C78559",
"o c #DB9362",
"O c #EC9E6A",
"+ c #FFBCBC",
"@ c #E5E3E3",
"# c #F4F4F4",
"$ c None",
/* pixels */
"$$$$$$$$$$$$$$$$$$$$$$$$$$$$$$$$",
"$$$$$$$$$$$$$$$$$$$$$$$$$$$$$$$$",
"$$$$$$$$$$$$$$$$$$$$$$$$$$$$$$$$",
"$$$$$$$$$$$$$$$$$$$$$$$$$$$$$$$$",
"$$$$$$$$$$$$$$$$$$$$$$$$$$$$$$$$",
"$$$$$$$$$$$$$$$$$$$$$$$$$$$$$$$$",
"$$$$$$$$$$$$$$$$$$$$$$$$$$$$$$$$",
"$$$$$$$$$ $$$$$$$$$$$$$$$$$$$$$$",
"$$$$$$$$$$ $$$$$$$$$$$$$$$$$$$$$",
"$$$$$$$$$ $$$$$$$$$$$$$$$$$$$$$$",
"$$$$$$$$$$$$$$$$$$$$$$$$$$$$$$$$",
"$$$$$$$$$ $$$$    $$$$$$$$$$$$$$",
"$$$$$$$$$$$$   @@O  $$$$$$$$$$$$",
"$$$$$$$$$   oOOO#@OO $$$$$$$$$$$",
"$$$$$$$$ + #o XOO#@o  $$$$$$$$$$",
"$$$$$$$ ####@+ XOo#@oX $$$$$$$$$",
"$$$$$$$ # # ##Oooo##@X $$$$$$$$$",
"$$$$$$$ #######OoXX#@ # $$$$$$$$",
"$$$$$$$ @##### OoX #@ @ $$$$$$$$",
"$$$$$$$. @@@@ +oX +@ X  $$$$$$$$",
"$$$$$$...              .$$$$$$$$",
"$$$$$$$................$$$$$$$$$",
"$$$$$$$$$$$$$$$$$$$$$$$$$$$$$$$$",
"$$$$$$$$$$$$$$$$$$$$$$$$$$$$$$$$",
"$$$$$$$$$$$$$$$$$$$$$$$$$$$$$$$$",
"$$$$$$$$$$$$$$$$$$$$$$$$$$$$$$$$",
"$$$$$$$$$$$$$$$$$$$$$$$$$$$$$$$$",
"$$$$$$$$$$$$$$$$$$$$$$$$$$$$$$$$",
"$$$$$$$$$$$$$$$$$$$$$$$$$$$$$$$$",
"$$$$$$$$$$$$$$$$$$$$$$$$$$$$$$$$",
"$$$$$$$$$$$$$$$$$$$$$$$$$$$$$$$$",
"$$$$$$$$$$$$$$$$$$$$$$$$$$$$$$$$"
};
