/* XPM */
static char *result[] = {
/* columns rows colors chars-per-pixel */
"32 32 12 1 ",
"  c black",
". c #6D6D6D",
"X c #B05858",
"o c #C78559",
"O c #DB9362",
"+ c #EC9E6A",
"@ c #A86DD9",
"# c #4BFFE7",
"$ c #FFBCBC",
"% c #E5E3E3",
"& c #F4F4F4",
"* c None",
/* pixels */
"********************************",
"********************************",
"********************************",
"********************************",
"********************************",
"********************************",
"********************************",
"********************************",
"********************************",
"******************* ************",
"******** ********* X ***********",
"******* # ****    XX  **********",
"******  ## *   %%+  XX *********",
"***** ##    O+++&%++ X *********",
"****** # $ &O o++&%O  **********",
"******* &&&&%$ o+O&%Oo  ********",
"******* & & &&+OOO&&%o @  ******",
"******* &&&&&&&+Ooo&% & @@ *****",
"******* %&&&&& +Oo &% % @ ******",
"*******. %%%% $Oo $% o   *******",
"******...              .********",
"*******................*********",
"********************************",
"********************************",
"********************************",
"********************************",
"********************************",
"********************************",
"********************************",
"********************************",
"********************************",
"********************************"
};
