/* XPM */
static char *result[] = {
/* columns rows colors chars-per-pixel */
"32 32 3 1 ",
"  c black",
". c #9F2A2A",
"X c None",
/* pixels */
"XXXXXXXXXXXXXXXXXXXXXXXXXXXXXXXX",
"XXXXXXXXXXXXXXXXXXXXXXXXXXXXXXXX",
"XXXXXXXXXXXXXXXXXXXXXXXXXXXXXXXX",
"XXXXXXXXXXXXXXXXXXXXXXXXXXXXXXXX",
"XXXXXXXXXXXXXXXXXXXXXXXXXXXXXXXX",
"XXXXXXXXXXXXXXXXXXXXXXXXXXXXXXXX",
"XXXXXXXXXXXXXXXXXXXXXXXXXXXXXXXX",
"XXXXXXXXXXXXXXXXXXXXXXXXXXXXXXXX",
"XXXXXXXXXXXXXXXXXXXXXX XXXXXXXXX",
"XXXXXXXXXXXXXXXXXXXXX . XXXXXXXX",
"XXXXXXXXXXXXXXXXXXXX ... XXXXXXX",
"XXXXXXXXXXXXXXXXXXX ... XXXXXXXX",
"XXXXXXXXXXXXXXXXXX ... XXXXXXXXX",
"XXXXXXXXXXXXXXXXXX .. XXXXXXXXXX",
"XXXXXXXXXX XXXXXX ... XXXXXXXXXX",
"XXXXXXXXX . XXXXX .. XXXXXXXXXXX",
"XXXXXXXX ... XXX ... XXXXXXXXXXX",
"XXXXXXXXX ... XX .. XXXXXXXXXXXX",
"XXXXXXXXXX ...  ... XXXXXXXXXXXX",
"XXXXXXXXXXX ...... XXXXXXXXXXXXX",
"XXXXXXXXXXXX ..... XXXXXXXXXXXXX",
"XXXXXXXXXXXXX ... XXXXXXXXXXXXXX",
"XXXXXXXXXXXXXX .. XXXXXXXXXXXXXX",
"XXXXXXXXXXXXXXX  XXXXXXXXXXXXXXX",
"XXXXXXXXXXXXXXXXXXXXXXXXXXXXXXXX",
"XXXXXXXXXXXXXXXXXXXXXXXXXXXXXXXX",
"XXXXXXXXXXXXXXXXXXXXXXXXXXXXXXXX",
"XXXXXXXXXXXXXXXXXXXXXXXXXXXXXXXX",
"XXXXXXXXXXXXXXXXXXXXXXXXXXXXXXXX",
"XXXXXXXXXXXXXXXXXXXXXXXXXXXXXXXX",
"XXXXXXXXXXXXXXXXXXXXXXXXXXXXXXXX",
"XXXXXXXXXXXXXXXXXXXXXXXXXXXXXXXX"
};
