/* XPM */
static char *result[] = {
/* columns rows colors chars-per-pixel */
"32 32 9 1 ",
"  c #651E9F",
". c #7521BB",
"X c #8F4EC5",
"o c #9B6CC3",
"O c #A86DD9",
"+ c #C399E7",
"@ c #DEBCFB",
"# c white",
"$ c None",
/* pixels */
"$$$$$$$$$$$$$$$$$$$$$$$$$$$$$$$$",
"$$$$$$$$$$$$$$$$$$$$$$$$$$$$$$$$",
"$$$$$$$$$$$$$$$$$$$$$$$$$$$$$$$$",
"$$$$$$$$$$$$$$$$$$$$$$$$$$$$$$$$",
"$$$$$$$$$$$$$$$$$$$$$$$$$$$$$$$$",
"$$$$$$$$$$$$$$$$$$$$$$$$$$$$$$$$",
"$$$$$$$$$$$$$+$$$$$$$$$$$$$$$$$$",
"$$$$$$$$$$$$$$ +$$$$$$$$$$$$$$$$",
"$$$$$$$$$$$$..$$$$...$$$$$$$$$$$",
"$$$$$$$$$$..O$o$$.++++$$$$$$$$$$",
"$$$$$$$$$.OOO$$$.@@XOO+$$$$$$$$$",
"$$$$$$$$..@@$$...@O  OO$$$$$$$$$",
"$$$$$$$$.++X $.XXO $$$O$$$$$$$$$",
"$$$$$$$$..OXO..@XO. $$$.+$$$$$$$",
"$$$$$$$$$.OOXO+@X++..$+$$$$$$$$$",
"$$$$$$$$$$..X+###@+O.$$ $$$$$$$$",
"$$$$$$$$$+$..OO#XX@@O.$$$$$$$$$$",
"$$$$$$$. $$$..OX@OOXX.$$$$$$$$$$",
"$$$$$$$$+$$$ .O@.. @XO.$$$$$$$$$",
"$$$$$$$$O+$  XX@.$$ +O.$$$$$$$$$",
"$$$$$$$$$X@XX+++.$$$+.$$$$$$$$$$",
"$$$$$$$$$$..OOO.$$$ O.$$$$$$$$$$",
"$$$$$$$$$$$$...$$. O.$$$$$$$$$$$",
"$$$$$$$$$$$$$$$$+ $$$$$$$$$$$$$$",
"$$$$$$$$$$$$$$$$$$$$$$$$$$$$$$$$",
"$$$$$$$$$$$$$$$$$$$$$$$$$$$$$$$$",
"$$$$$$$$$$$$$$$$$$$$$$$$$$$$$$$$",
"$$$$$$$$$$$$$$$$$$$$$$$$$$$$$$$$",
"$$$$$$$$$$$$$$$$$$$$$$$$$$$$$$$$",
"$$$$$$$$$$$$$$$$$$$$$$$$$$$$$$$$",
"$$$$$$$$$$$$$$$$$$$$$$$$$$$$$$$$",
"$$$$$$$$$$$$$$$$$$$$$$$$$$$$$$$$"
};
