/* XPM */
static char *result[] = {
/* columns rows colors chars-per-pixel */
"32 32 4 1 ",
"  c #62AE4F",
". c #75A36A",
"X c #C5D256",
"o c None",
/* pixels */
"oooooooooooooooooooooooooooooooo",
"oooooooooooooooooooooooooooooooo",
"oooooooooooooooooooooooooooooooo",
"oooooooooooooooooooooooooooooooo",
"oooooooooooooooooooooooooooooooo",
"oooooooooooooooooooooooooooooooo",
"oooooooooooooooooooooooooooooooo",
"oooooooX      ..     .. oooooooo",
"ooooooo               . oooooooo",
"ooooooo   .             oooooooo",
"ooooooo   .X            oooooooo",
"ooooooo          X.     oooooooo",
"ooooooo.        X       oooooooo",
"oooooooX.           .X  oooooooo",
"ooooooo             ..  oooooooo",
"ooooooo         X       oooooooo",
"ooooooo   X..    X      oooooooo",
"ooooooo    X.           oooooooo",
"ooooooo.                oooooooo",
"ooooooo.         X    X oooooooo",
"ooooooo          .X   .Xoooooooo",
"ooooooo  .X     .     ..oooooooo",
"ooooooo   .             oooooooo",
"ooooooo                 oooooooo",
"oooooooooooooooooooooooooooooooo",
"oooooooooooooooooooooooooooooooo",
"oooooooooooooooooooooooooooooooo",
"oooooooooooooooooooooooooooooooo",
"oooooooooooooooooooooooooooooooo",
"oooooooooooooooooooooooooooooooo",
"oooooooooooooooooooooooooooooooo",
"oooooooooooooooooooooooooooooooo"
};
