/* XPM */
static char *result[] = {
/* columns rows colors chars-per-pixel */
"32 32 6 1 ",
"  c black",
". c #6A3C78",
"X c #864C98",
"o c #AC61C3",
"O c #DA7AF7",
"+ c None",
/* pixels */
"++++++++++++++++++++++++++++++++",
"++++++++++++++++++++++++++++++++",
"++++++++++++++++++++++++++++++++",
"++++++++++++++++++++++++++++++++",
"++++++++++++++++++++++++++++++++",
"++++++++++++++++++++++++++++++++",
"++++++++++++++++++++++++++++++++",
"++++++++++++++++++++++++++++++++",
"++++++++++++++++++++++++++++++++",
"++++++++++++++++++++++++++++++++",
"+++++++++++++++   ++++++++++++++",
"+++++++++++++++ O  +++++++++++++",
"+++++++++++++++ Oo  ++++++++++++",
"+++++++++++++++ Xoo  +++++++++++",
"++++++++++++++  .XXO  ++++++++++",
"+++++++++++++  O .XoO ++++++++++",
"+++++++++     Ooo     ++++++++++",
"+++++++++ OXX. o  ++++++++++++++",
"+++++++++  ooX.  +++++++++++++++",
"++++++++++  oX. ++++++++++++++++",
"+++++++++++  oX ++++++++++++++++",
"++++++++++++  o ++++++++++++++++",
"+++++++++++++   ++++++++++++++++",
"++++++++++++++++++++++++++++++++",
"++++++++++++++++++++++++++++++++",
"++++++++++++++++++++++++++++++++",
"++++++++++++++++++++++++++++++++",
"++++++++++++++++++++++++++++++++",
"++++++++++++++++++++++++++++++++",
"++++++++++++++++++++++++++++++++",
"++++++++++++++++++++++++++++++++",
"++++++++++++++++++++++++++++++++"
};
