/* XPM */
static char *result[] = {
/* columns rows colors chars-per-pixel */
"32 32 6 1 ",
"  c black",
". c #2B897C",
"X c #35A999",
"o c #3FCAB8",
"O c #4BFFE7",
"+ c None",
/* pixels */
"++++++++++++++++++++++++++++++++",
"++++++++++++++++++++++++++++++++",
"++++++++++++++++++++++++++++++++",
"++++++++++++++++++++++++++++++++",
"++++++++++++++++++++++++++++++++",
"++++++++++++++++++++++++++++++++",
"++++++++++++++++++++++++++++++++",
"++++++++++++++++++++++++++++++++",
"++++++++++++++++++++++++++++++++",
"++++++++++++++++++++++++++++++++",
"+++++++++++++++   ++++++++++++++",
"+++++++++++++++ O  +++++++++++++",
"+++++++++++++++ Oo  ++++++++++++",
"+++++++++++++++ .oo  +++++++++++",
"++++++++++++++  .XXO  ++++++++++",
"+++++++++++++  O .XoO ++++++++++",
"+++++++++     Ooo     ++++++++++",
"+++++++++ OoX. o  ++++++++++++++",
"+++++++++  oXX.  +++++++++++++++",
"++++++++++  oX. ++++++++++++++++",
"+++++++++++  oX ++++++++++++++++",
"++++++++++++  o ++++++++++++++++",
"+++++++++++++   ++++++++++++++++",
"++++++++++++++++++++++++++++++++",
"++++++++++++++++++++++++++++++++",
"++++++++++++++++++++++++++++++++",
"++++++++++++++++++++++++++++++++",
"++++++++++++++++++++++++++++++++",
"++++++++++++++++++++++++++++++++",
"++++++++++++++++++++++++++++++++",
"++++++++++++++++++++++++++++++++",
"++++++++++++++++++++++++++++++++"
};
