/* XPM */
static char *result[] = {
/* columns rows colors chars-per-pixel */
"32 32 6 1 ",
"  c black",
". c gray36",
"X c #D676FB",
"o c #F2D5B5",
"O c white",
"+ c None",
/* pixels */
"++++++++++++++++++++++++++++++++",
"++++++++++++++++++++++++++++++++",
"++++++++++++++++++++++++++++++++",
"++++++++++++++++++++++++++++++++",
"++++++++++++++++++++++++++++++++",
"++++++++++++++++++++++++++++++++",
"++++++++++++++++++++++++++++++++",
"++++++++++++++++++++++++++++++++",
"+++++++++++++      +++++++++++++",
"++++++++++++ ooooOO ++++++++++++",
"+++++++++++ oooooooO +++++++++++",
"+++++++++++ oooooooo +++++++++++",
"+++++++++++ oooooooo +++++++++++",
"+++++++++++ ooooo  o +++++++++++",
"+++++++++++ oo ooo o +++++++++++",
"+++++++++++ oo oo oo +++++++++++",
"++++++++++++ oooooo ++++++++++++",
"+++++++++++++       ++++++++++++",
"++++++++++++ XXXXX   +++++++++++",
"+++++++++++ oX XXXX o ++++++++++",
"++++++++++++  ...XX  +++++++++++",
"++++++++++++ .. ... ++++++++++++",
"++++++++++++ ..  ... +++++++++++",
"+++++++++++++  ++   ++++++++++++",
"++++++++++++++++++++++++++++++++",
"++++++++++++++++++++++++++++++++",
"++++++++++++++++++++++++++++++++",
"++++++++++++++++++++++++++++++++",
"++++++++++++++++++++++++++++++++",
"++++++++++++++++++++++++++++++++",
"++++++++++++++++++++++++++++++++",
"++++++++++++++++++++++++++++++++"
};
