/* XPM */
static char *result[] = {
/* columns rows colors chars-per-pixel */
"32 32 3 1 ",
"  c black",
". c #8C67A1",
"X c None",
/* pixels */
"XXXXXXXXXXXXXXXXXXXXXXXXXXXXXXXX",
"XXXXXXXXXXXXXXXXXXXXXXXXXXXXXXXX",
"XXXXXXXXXXXXXXXXXXXXXXXXXXXXXXXX",
"XXXXXXXXXXXXXXXXXXXXXXXXXXXXXXXX",
"XXXXXXXXXXXXXXXXXXXXXXXXXXXXXXXX",
"XXXXXXXXXXXXXXXXXXXXXXXXXXXXXXXX",
"XXXXXXXXXXXXXXXXXXXXXXXXXXXXXXXX",
"XXXXXXXXXXXXXXXXXXXXXXXXXXXXXXXX",
"XXXXXXXXXXXXX      XXXXXXXXXXXXX",
"XXXXXXXXXXXX ...... XXXXXXXXXXXX",
"XXXXXXXXXXX ........ XXXXXXXXXXX",
"XXXXXXXXXXX ...  ... XXXXXXXXXXX",
"XXXXXXXXXXX .. XX .. XXXXXXXXXXX",
"XXXXXXXXXXX .. XX .. XXXXXXXXXXX",
"XXXXXXXXXXX .. XX .. XXXXXXXXXXX",
"XXXXXXXXXXX ...  ... XXXXXXXXXXX",
"XXXXXXXXXXX ....... XXXXXXXXXXXX",
"XXXXXXXXXXX ...... XXXXXXXXXXXXX",
"XXXXXXXXXXX ..  ... XXXXXXXXXXXX",
"XXXXXXXXXXX .. X ... XXXXXXXXXXX",
"XXXXXXXXXXX .. XX .. XXXXXXXXXXX",
"XXXXXXXXXXX .. XX .. XXXXXXXXXXX",
"XXXXXXXXXXX .. XX .. XXXXXXXXXXX",
"XXXXXXXXXXXX  XXXX  XXXXXXXXXXXX",
"XXXXXXXXXXXXXXXXXXXXXXXXXXXXXXXX",
"XXXXXXXXXXXXXXXXXXXXXXXXXXXXXXXX",
"XXXXXXXXXXXXXXXXXXXXXXXXXXXXXXXX",
"XXXXXXXXXXXXXXXXXXXXXXXXXXXXXXXX",
"XXXXXXXXXXXXXXXXXXXXXXXXXXXXXXXX",
"XXXXXXXXXXXXXXXXXXXXXXXXXXXXXXXX",
"XXXXXXXXXXXXXXXXXXXXXXXXXXXXXXXX",
"XXXXXXXXXXXXXXXXXXXXXXXXXXXXXXXX"
};
