/* XPM */
static char *result[] = {
/* columns rows colors chars-per-pixel */
"32 32 3 1 ",
"  c black",
". c #8C67A1",
"X c None",
/* pixels */
"XXXXXXXXXXXXXXXXXXXXXXXXXXXXXXXX",
"XXXXXXXXXXXXXXXXXXXXXXXXXXXXXXXX",
"XXXXXXXXXXXXXXXXXXXXXXXXXXXXXXXX",
"XXXXXXXXXXXXXXXXXXXXXXXXXXXXXXXX",
"XXXXXXXXXXXXXXXXXXXXXXXXXXXXXXXX",
"XXXXXXXXXXXXXXXXXXXXXXXXXXXXXXXX",
"XXXXXXXXXXXXXXXXXXXXXXXXXXXXXXXX",
"XXXXXXXXXXXXXXXXXXXXXXXXXXXXXXXX",
"XXXXXXXXXXXX  XXXXXXXXXXXXXXXXXX",
"XXXXXXXXXXX .. XXXXXXXXXXXXXXXXX",
"XXXXXXXXXXX .. XXXXXXXXXXXXXXXXX",
"XXXXXXXXXXX .. XXXXXXXXXXXXXXXXX",
"XXXXXXXXXXX .. XXXXXXXXXXXXXXXXX",
"XXXXXXXXXXX .. XXXXXXXXXXXXXXXXX",
"XXXXXXXXXXX .. XXXXXXXXXXXXXXXXX",
"XXXXXXXXXXX .. XXXXXXXXXXXXXXXXX",
"XXXXXXXXXXX .. XXXXXXXXXXXXXXXXX",
"XXXXXXXXXXX .. XXXXXXXXXXXXXXXXX",
"XXXXXXXXXXX .. XXXXXXXXXXXXXXXXX",
"XXXXXXXXXXX .. XXXXXXXXXXXXXXXXX",
"XXXXXXXXXXX ...     XXXXXXXXXXXX",
"XXXXXXXXXXX ........ XXXXXXXXXXX",
"XXXXXXXXXXXX ....... XXXXXXXXXXX",
"XXXXXXXXXXXXX       XXXXXXXXXXXX",
"XXXXXXXXXXXXXXXXXXXXXXXXXXXXXXXX",
"XXXXXXXXXXXXXXXXXXXXXXXXXXXXXXXX",
"XXXXXXXXXXXXXXXXXXXXXXXXXXXXXXXX",
"XXXXXXXXXXXXXXXXXXXXXXXXXXXXXXXX",
"XXXXXXXXXXXXXXXXXXXXXXXXXXXXXXXX",
"XXXXXXXXXXXXXXXXXXXXXXXXXXXXXXXX",
"XXXXXXXXXXXXXXXXXXXXXXXXXXXXXXXX",
"XXXXXXXXXXXXXXXXXXXXXXXXXXXXXXXX"
};
