/* XPM */
static char *_fec1fd2b1504d6dc47325372fc708f3ytBQFEwKKjwJlT11[] = {
/* columns rows colors chars-per-pixel */
"32 32 3 1 ",
"  c None",
". c black",
"X c #8C67A1",
/* pixels */
"                                ",
"                                ",
"                                ",
"                                ",
"                                ",
"                                ",
"                                ",
"                                ",
"             .......            ",
"            .XXXXXX..           ",
"           .XXXXXXXX.           ",
"           .XXX...XX.           ",
"           .XX.  .XX.           ",
"           .XX.   ..            ",
"           .XXX....             ",
"           .XXXXXX..            ",
"           .XXXXXXX..           ",
"           .XXX..XXX.           ",
"           .XX.  .XX.           ",
"           .XX.  .XX.           ",
"           .XXX..XXX.           ",
"           .XXXXXXXX.           ",
"            .XXXXXX.            ",
"             ......             ",
"                                ",
"                                ",
"                                ",
"                                ",
"                                ",
"                                ",
"                                ",
"                                "
};
