/* XPM */
static char *_48956193c3d47ddc70780c49034084b5BKrbbDJZDKVktJS[] = {
/* columns rows colors chars-per-pixel */
"32 32 3 1 ",
"  c None",
". c black",
"X c #8C67A1",
/* pixels */
"                                ",
"                                ",
"                                ",
"                                ",
"                                ",
"                                ",
"                                ",
"                                ",
"                ...             ",
"               .XXX.            ",
"              .XXXX.            ",
"             .XXXXX.            ",
"            .XXX.XX.            ",
"            .XX..XX.            ",
"           .XXX..XX.            ",
"           .XX. .XX.            ",
"           .XX. .XX.            ",
"           .XX...XX.            ",
"           .XXXXXXXX.           ",
"           .XXXXXXXX.           ",
"            .....XX.            ",
"                .XX.            ",
"                .XX.            ",
"                 ..             ",
"                                ",
"                                ",
"                                ",
"                                ",
"                                ",
"                                ",
"                                ",
"                                "
};
