/* XPM */
static char *_dcb1a52640545d3b877f7d629342523g8FcwHS6C6iX2IkK[] = {
/* columns rows colors chars-per-pixel */
"32 32 3 1 ",
"  c None",
". c black",
"X c #8C67A1",
/* pixels */
"                                ",
"                                ",
"                                ",
"                                ",
"                                ",
"                                ",
"                                ",
"                                ",
"             .......            ",
"            .XXXXXXX.           ",
"           .XXXXXXXX.           ",
"           .XXX.....            ",
"           .XX.                 ",
"           .XX.                 ",
"           .XX.....             ",
"           .XXXXXX..            ",
"            .XXXXXX..           ",
"             ....XXX.           ",
"                 .XX.           ",
"            ..   .XX.           ",
"           .XX...XXX.           ",
"           .XXXXXXXX.           ",
"            .XXXXXX.            ",
"             ......             ",
"                                ",
"                                ",
"                                ",
"                                ",
"                                ",
"                                ",
"                                ",
"                                "
};
