/* XPM */
static char *_90a39d73353439c88488d46ec087924Nb92O6tabM5qU9nO[] = {
/* columns rows colors chars-per-pixel */
"32 32 3 1 ",
"  c None",
". c black",
"X c #8C67A1",
/* pixels */
"                                ",
"                                ",
"                                ",
"                                ",
"                                ",
"                                ",
"                                ",
"                                ",
"             ......             ",
"            .XXXXXX.            ",
"           .XXXXXXXX.           ",
"           .XX....XX.           ",
"           .XX.  .XX.           ",
"           .XX.  .XX.           ",
"           .XX....XX.           ",
"           .XXXXXXXX.           ",
"            .XXXXXXX.           ",
"             .....XX.           ",
"                 .XX.           ",
"            ..   .XX.           ",
"           .XX...XXX.           ",
"           .XXXXXXXX.           ",
"            .XXXXXX.            ",
"             ......             ",
"                                ",
"                                ",
"                                ",
"                                ",
"                                ",
"                                ",
"                                ",
"                                "
};
