/* XPM */
static char *_4dbfca4528e467e96d5d8eceb09f85fVulqEOJlVshMPanQ[] = {
/* columns rows colors chars-per-pixel */
"32 32 3 1 ",
"  c None",
". c black",
"X c #8C67A1",
/* pixels */
"                                ",
"                                ",
"                                ",
"                                ",
"                                ",
"                                ",
"                                ",
"                                ",
"              ....              ",
"             .XXXX.             ",
"            .XXXXX.             ",
"           .XXXXXX.             ",
"           .XX..XX.             ",
"            .. .XX.             ",
"               .XX.             ",
"               .XX.             ",
"               .XX.             ",
"               .XX.             ",
"               .XX.             ",
"               .XX.             ",
"               .XX.             ",
"               .XX.             ",
"               .XX.             ",
"                ..              ",
"                                ",
"                                ",
"                                ",
"                                ",
"                                ",
"                                ",
"                                ",
"                                "
};
