/* XPM */
static char *result[] = {
/* columns rows colors chars-per-pixel */
"32 32 4 1 ",
"  c gray36",
". c #6D6D6D",
"X c #9F9E9E",
"o c None",
/* pixels */
"oooooooooooooooooooooooooooooooo",
"oooooooooooooooooooooooooooooooo",
"oooooooooooooooooooooooooooooooo",
"oooooooooooooooooooooooooooooooo",
"oooooooooooooooooooooooooooooooo",
"oooooooooooooooooooooooooooooooo",
"oooooooooooooooooooooooooooooooo",
"ooooooooo             oooooooooo",
"oooooooo  XX........X  ooooooooo",
"ooooooo  XX..........X  oooooooo",
"ooooooo XX...........XX oooooooo",
"ooooooo X.............X oooooooo",
"ooooooo X.............. oooooooo",
"ooooooo ............... oooooooo",
"ooooooo X.............. oooooooo",
"ooooooo X.............. oooooooo",
"ooooooo ............... oooooooo",
"ooooooo ............... oooooooo",
"ooooooo ............... oooooooo",
"ooooooo ............... oooooooo",
"ooooooo ............... oooooooo",
"ooooooo  .............  oooooooo",
"oooooooo  ...........  ooooooooo",
"ooooooooo             oooooooooo",
"oooooooooooooooooooooooooooooooo",
"oooooooooooooooooooooooooooooooo",
"oooooooooooooooooooooooooooooooo",
"oooooooooooooooooooooooooooooooo",
"oooooooooooooooooooooooooooooooo",
"oooooooooooooooooooooooooooooooo",
"oooooooooooooooooooooooooooooooo",
"oooooooooooooooooooooooooooooooo"
};
